<svg
  xmlns="http://www.w3.org/2000/svg"
  viewBox="0 0 1000 1140"
  fill="currentColor"
>
  <g>
    <path
      d="M880.31,235h-15.42c0,74.39,60.53,134.91,134.92,134.91v-15.42C933.92,354.49,880.32,300.9,880.31,235L880.31,235z"
    ></path>
    <path
      d="M798.88,225.56c0-110.94,89.93-200.87,200.88-200.87V0.01h-22.32c-6.85-0.01-13.72-0.01-20.6,0h-9.59v0.03
		c-114.75,0.47-233.8,6.35-328.58,80.09c-108.23,84.22-142.55,245.53-101.39,372.08c33.96,104.44,46.42,133.39,43.33,201.53
		c-3.1,67.92-29.31,131.41-59.74,191.68c-28,55.46-69.46,109.89-111.93,153.9c-16.95,17.56-35.12,33.86-54.04,49.29
		c-19.68,16.03-42.07,35.82-65.07,45.95c-8.51,3.75-14.4,4.48-23.65,5.35c-23.47,2.22-41.53-11.82-46.83-34.36
		c-5.85-24.91,5.46-49.66,22.88-67.25c19.7-19.89,44.15-34.56,67.26-49.81c22.7-14.97,46.81-32.51,68.27-49.24
		c40.95-31.92,78.47-65.12,104.16-110.59C504.63,713,508.68,624,483.68,541.74c-29.74-97.9-109-178.72-200.54-221.26
		c-46.93-21.77-98.71-33.68-150.46-38.64c-48.32-4.64-95.06,20.63-116.71,64.09c-47.4,95.17,18.7,189.41,108.64,192.42
		c30.56,1.03,59.55,3.79,81.29,7.29c77.03,15.83,136.31,61.8,144.03,141.54c9.14,94.53-33.53,190.4-114.75,256.26
		c-10.01,8.11-19.05,17.14-28.35,26.23c-25.52,24.94-46.78,52.89-43.87,90.71c1.86,24.09,13.52,46.04,33.07,60.37
		c21.54,15.79,47.53,19.71,73.62,19.21c68.86-1.33,130.86-25.98,186.14-59.97c120.4-74.02,229.12-167.66,293.78-295.92
		c38.18-75.73,53.99-159.71,71.77-242.1c16.73-77.53,87.29-89.3,126.49-90.9h51.93v-24.65C888.83,426.43,798.89,336.5,798.88,225.56
		L798.88,225.56z"
    ></path>
    <rect x="968.24" y="183.63" width="31.51" height="31.51"></rect>
    <path
      d="M980.26,298.39v12.7c5.4,0.43,9.9-0.08,12.6-1.53c2.69-1.46,4.56-4.05,5.57-7.78c1.02-3.72,1.46-9.3,1.31-16.74v-31.5
		h-31.51v31.51h27.35c0.43,3.64-0.59,6.74-3.07,9.28C990.05,296.89,986.24,298.23,980.26,298.39L980.26,298.39z"
    ></path>
  </g>
    <style>
        path { fill: #000; }
        @media (prefers-color-scheme: dark) {
            path { fill: #FFF; }
        }
    </style>
</svg>
